<svg width="160" height="46" viewBox="0 0 160 46" fill="none" xmlns="http://www.w3.org/2000/svg">
<path d="M58.6707 31.0174C58.3533 30.5098 57.9782 29.9646 57.5508 29.3762C57.118 28.7879 56.6582 28.196 56.1568 27.6005C55.6609 27.0032 55.1433 26.4311 54.5987 25.8822C54.0541 25.3333 53.5113 24.8509 52.9667 24.4311V31.0174H49.4447V15.4683H52.9667V21.3138C53.8756 20.3703 54.7935 19.3784 55.7276 18.3471C56.6618 17.3157 57.522 16.3561 58.3155 15.4683H62.4975C61.4317 16.7292 60.3641 17.9399 59.2875 19.104C58.2055 20.2681 57.0747 21.4375 55.8809 22.6178C57.1325 23.6563 58.3407 24.8867 59.5039 26.3091C60.6707 27.7333 61.7851 29.3027 62.8617 31.021H58.6689V31.0174H58.6707Z" fill="black"/>
<path d="M72.7947 26.4616C72.3565 27.4499 71.8966 28.2606 71.4169 28.8955C70.9372 29.5323 70.4395 30.0291 69.9273 30.3879C69.4152 30.7466 68.8976 30.9941 68.3692 31.1286C67.8408 31.265 67.307 31.3313 66.7642 31.3313C66.2521 31.3313 65.7237 31.2829 65.1755 31.186C64.6272 31.0892 64.1097 30.9511 63.6282 30.7717L64.2611 27.9682C65.0005 28.2373 65.7399 28.3718 66.4685 28.3718C66.9391 28.3718 67.3864 28.2678 67.821 28.0561C68.2538 27.848 68.665 27.3978 69.0617 26.7091C68.4377 25.7531 67.848 24.7683 67.2764 23.7585C66.7119 22.7505 66.1727 21.755 65.666 20.7739C65.1538 19.7946 64.6831 18.8511 64.2557 17.9471C63.8229 17.0431 63.4424 16.218 63.1106 15.4683H67.0185C67.2565 16.0512 67.5252 16.6772 67.821 17.3426C68.1113 18.0081 68.4287 18.695 68.7605 19.4071C69.0924 20.1174 69.426 20.8295 69.7686 21.5398C70.1059 22.2501 70.4341 22.9424 70.7515 23.615C71.2366 22.3003 71.6964 20.9532 72.1346 19.5775C72.5729 18.2018 72.9948 16.8332 73.4078 15.4718H77.1823C76.7855 16.6252 76.4014 17.6996 76.0209 18.7022C75.6404 19.7049 75.2707 20.6537 74.9064 21.5523C74.5421 22.4509 74.1833 23.3029 73.8298 24.1101C73.4709 24.9172 73.1283 25.7028 72.7947 26.4651V26.4616Z" fill="black"/>
<path d="M82.9909 18.4296C82.944 19.4322 82.8845 20.4367 82.8159 21.4483C82.7528 22.4563 82.632 23.4357 82.4571 24.3773C82.2821 25.319 82.0351 26.2015 81.7123 27.0248C81.3895 27.848 80.9422 28.5727 80.3814 29.2005C79.8169 29.8282 79.1082 30.3305 78.2697 30.7035C77.4257 31.0766 76.3959 31.2883 75.1751 31.3313L74.7892 28.2803C75.8712 28.1619 76.7115 27.8893 77.2976 27.4606C77.8837 27.0337 78.3274 26.3808 78.6285 25.4966C79.0036 24.4042 79.2723 22.9944 79.431 21.2671C79.5897 19.5399 79.6691 17.6063 79.6691 15.4683H90.3504V31.0174H86.8284V18.4296H82.9909Z" fill="black"/>
<path d="M104.851 25.9253C104.851 27.6615 104.202 28.978 102.909 29.8731C101.616 30.7717 99.8037 31.2201 97.4863 31.2201C96.8425 31.2201 96.0977 31.1753 95.2628 31.0838C94.4278 30.9941 93.6055 30.8524 92.7922 30.6569V15.4683H96.3142V20.6304C96.5089 20.616 96.6893 20.6071 96.8425 20.6071H97.3276C99.8722 20.6071 101.762 21.0411 102.999 21.9075C104.233 22.7738 104.851 24.1155 104.851 25.9253ZM97.0157 23.5684H96.6983C96.5612 23.5684 96.4296 23.5774 96.3123 23.5917V28.2355C96.4765 28.2498 96.6658 28.2588 96.8768 28.2588H97.6432C98.1085 28.2588 98.5611 28.2211 98.9994 28.1458C99.4376 28.0705 99.8181 27.9431 100.15 27.7637C100.482 27.5844 100.747 27.344 100.942 27.0463C101.136 26.7467 101.237 26.3737 101.237 25.9253C101.237 25.4768 101.136 25.0804 100.942 24.7809C100.747 24.4832 100.462 24.2428 100.092 24.0634C99.7225 23.8841 99.2843 23.7567 98.7613 23.6814C98.2383 23.6061 97.6577 23.5684 97.0139 23.5684H97.0157Z" fill="black"/>
<path d="M117.275 15.4683V18.4547H112.553V31.021H109.026V18.4547H104.305V15.4683H117.267H117.275Z" fill="black"/>
<path d="M127.503 26.4616C127.065 27.4499 126.605 28.2606 126.126 28.8955C125.646 29.5323 125.148 30.0291 124.636 30.3879C124.124 30.7466 123.606 30.9941 123.078 31.1286C122.549 31.265 122.016 31.3313 121.473 31.3313C120.961 31.3313 120.432 31.2829 119.884 31.186C119.334 31.0892 118.818 30.9511 118.337 30.7717L118.97 27.9682C119.709 28.2373 120.449 28.3718 121.177 28.3718C121.648 28.3718 122.095 28.2678 122.53 28.0561C122.962 27.848 123.374 27.3978 123.77 26.7091C123.146 25.7531 122.557 24.7683 121.985 23.7585C121.421 22.7505 120.881 21.755 120.375 20.7739C119.868 19.7946 119.392 18.8511 118.964 17.9471C118.532 17.0431 118.151 16.218 117.819 15.4683H121.727C121.965 16.0512 122.234 16.6772 122.53 17.3426C122.82 18.0081 123.137 18.695 123.469 19.4071C123.801 20.1174 124.135 20.8295 124.477 21.5398C124.815 22.2501 125.143 22.9424 125.46 23.615C125.945 22.3003 126.405 20.9532 126.843 19.5775C127.282 18.2018 127.704 16.8332 128.116 15.4718H131.891C131.494 16.6252 131.11 17.6996 130.73 18.7022C130.349 19.7049 129.979 20.6537 129.615 21.5523C129.251 22.4509 128.892 23.3029 128.538 24.1101C128.18 24.9172 127.837 25.7028 127.503 26.4651V26.4616Z" fill="black"/>
<path d="M137.427 15.2871C139.761 15.2871 141.552 15.6961 142.803 16.5104C144.055 17.3247 144.677 18.6628 144.677 20.5156C144.677 22.3684 144.044 23.7352 142.781 24.5657C141.514 25.3961 139.709 25.8105 137.359 25.8105H136.255V31.0156H132.733V15.6907C133.5 15.54 134.311 15.436 135.168 15.3768C136.03 15.3176 136.783 15.2871 137.427 15.2871ZM137.654 18.2735C137.397 18.2735 137.148 18.2825 136.893 18.2969C136.65 18.3112 136.434 18.3256 136.25 18.3399V22.8294H137.359C138.578 22.8294 139.498 22.6644 140.114 22.3344C140.733 22.0043 141.038 21.3927 141.038 20.4941C141.038 20.06 140.958 19.7013 140.8 19.4161C140.641 19.1327 140.414 18.9031 140.123 18.7327C139.828 18.5623 139.469 18.4404 139.052 18.374C138.632 18.3058 138.167 18.2735 137.654 18.2735Z" fill="black"/>
<path d="M156.226 31.0176C156.051 30.4777 155.867 29.9235 155.667 29.3513C155.461 28.7809 155.264 28.2159 155.064 27.6509H148.954C148.754 28.2177 148.558 28.7881 148.357 29.3567C148.157 29.9253 147.972 30.4813 147.804 31.0158H144.145C144.736 29.3405 145.295 27.7926 145.824 26.372C146.352 24.9515 146.87 23.6116 147.371 22.3543C147.878 21.0969 148.379 19.9041 148.871 18.7741C149.362 17.6441 149.869 16.541 150.397 15.4648H153.739C154.251 16.5428 154.763 17.6459 155.259 18.7741C155.76 19.9041 156.262 21.0969 156.768 22.3543C157.275 23.6116 157.793 24.9497 158.321 26.372C158.855 27.7944 159.414 29.3423 160 31.0158H156.229L156.226 31.0176ZM151.991 18.9912C151.912 19.2172 151.802 19.5239 151.649 19.9131C151.501 20.3005 151.326 20.7507 151.136 21.2601C150.942 21.7695 150.725 22.3291 150.487 22.9426C150.244 23.556 150.002 24.1981 149.759 24.869H154.231C153.993 24.1963 153.76 23.5488 153.539 22.9372C153.311 22.322 153.095 21.7624 152.895 21.2512C152.695 20.7436 152.514 20.2916 152.366 19.9041C152.213 19.5167 152.092 19.2118 151.997 18.9912H151.991Z" fill="black"/>
<path d="M23.1246 0C10.3531 0 0 10.2974 0 23C0 35.7026 10.3531 46 23.1246 46C35.896 46 46.2491 35.7026 46.2491 23C46.2491 10.2974 35.896 0 23.1246 0ZM18.6702 18.1553C18.6702 18.2952 18.5566 18.4083 18.416 18.4083H11.9743C11.8337 18.4083 11.7201 18.5213 11.7201 18.6612V21.409C11.7201 21.5489 11.8337 21.6619 11.9743 21.6619H17.6495C17.7902 21.6619 17.9038 21.7749 17.9038 21.9148V24.3488C17.9038 24.4887 17.7902 24.6017 17.6495 24.6017H11.9743C11.8337 24.6017 11.7201 24.7147 11.7201 24.8546V30.7665C11.7201 30.9064 11.6065 31.0194 11.4658 31.0194H8.5173C8.37663 31.0194 8.20531 30.8957 8.20531 30.7647L8.20171 15.7249C8.20171 15.585 8.31532 15.472 8.45598 15.472H18.416C18.5566 15.472 18.6684 15.585 18.6684 15.7232V18.1553H18.6702ZM24.7223 30.7091C24.7223 30.8795 24.5853 31.0176 24.4104 31.0176H21.5015C21.3266 31.0176 21.1895 30.8795 21.1895 30.7091V20.8207C21.1895 20.6503 21.3266 20.5122 21.5015 20.5122H21.6548C21.9866 20.7579 22.4465 20.9104 22.9586 20.9104C23.4654 20.9104 23.9253 20.7579 24.2571 20.5122H24.4104C24.5853 20.5122 24.7223 20.6503 24.7223 20.8207V30.7091ZM22.9586 19.4611C21.7829 19.4611 20.8307 18.5051 20.8307 17.3249C20.8307 16.1447 21.7829 15.1886 22.9586 15.1886C24.1344 15.1886 25.0866 16.1447 25.0866 17.3249C25.0866 18.5051 24.1344 19.4611 22.9586 19.4611ZM39.2034 30.6499C39.2034 30.8526 39.0338 31.0176 38.8337 31.0176H27.2759C27.0703 31.0176 26.9062 30.8526 26.9062 30.6499V29.0267C26.9062 28.9639 26.9224 28.9029 26.9477 28.8491C27.3643 28.1065 27.862 27.285 28.4481 26.3846C29.0612 25.4501 29.6942 24.5067 30.3597 23.556C31.0197 22.6054 31.6905 21.6853 32.3758 20.7938C32.8717 20.1517 33.337 19.5562 33.7806 19.0127C33.9808 18.7706 33.8077 18.4047 33.4957 18.4047H27.6402C27.4346 18.4047 27.2651 18.2396 27.2651 18.037V15.8344C27.2651 15.6317 27.4346 15.4649 27.6402 15.4649H38.5866C38.7922 15.4649 38.9563 15.6299 38.9563 15.8344V17.3159C38.9563 17.6818 38.8192 18.0334 38.5722 18.3042C38.2043 18.706 37.6471 19.323 37.2413 19.8073C36.5759 20.5929 35.8942 21.4485 35.1873 22.3776C34.4858 23.3067 33.777 24.2627 33.0863 25.2492C32.5363 26.0349 32.035 26.7936 31.5769 27.5218C31.4291 27.7657 31.604 28.076 31.8943 28.076H38.8373C39.0374 28.076 39.207 28.2411 39.207 28.4455V30.6499H39.2034Z" fill="black"/>
</svg>
